<?xml version="1.0" encoding="utf-8"?>
<!-- Generator: Adobe Illustrator 22.1.0, SVG Export Plug-In . SVG Version: 6.00 Build 0)  -->
<svg version="1.1" id="Capa_1" xmlns="http://www.w3.org/2000/svg" xmlns:xlink="http://www.w3.org/1999/xlink" x="0px" y="0px"
	 viewBox="0 0 419 170" style="enable-background:new 0 0 419 170;" xml:space="preserve">
<style type="text/css">
	.st0{fill:#FFFFFF;}
</style>
<title>Logo</title>
<path class="st0" d="M298.2,106.2c-5.5,0-9.4-2.1-11.8-6.4v5.7H275V54.9h13.2v19.6c1-1.9,2.6-3.5,4.5-4.5c2.1-1.1,4.5-1.6,6.9-1.6
	c2.2,0,4.3,0.5,6.2,1.5c1.9,1,3.6,2.3,5,4c1.4,1.8,2.5,3.8,3.3,6c0.8,2.5,1.2,5,1.2,7.6c0,2.6-0.4,5.2-1.3,7.6
	c-0.8,2.2-2,4.2-3.5,5.9C307.2,104.4,302.8,106.3,298.2,106.2L298.2,106.2z M294.4,95.1c2,0.1,3.9-0.7,5.2-2.1
	c1.4-1.5,2.1-3.5,2-5.6c0-2.1-0.7-4.1-1.9-5.7c-0.6-0.7-1.3-1.3-2.1-1.7c-0.8-0.4-1.7-0.6-2.7-0.6c-1.5,0-2.9,0.6-4,1.5
	c-1.3,1-2.3,2.4-2.9,3.9v6.5C289.9,93.9,292,95.1,294.4,95.1z"/>
<path class="st0" d="M337.8,106.2c-3,0.1-5.9-0.5-8.6-1.6c-2.3-0.9-4.5-2.4-6.2-4.2c-1.7-1.7-3-3.8-3.8-6c-1.7-4.6-1.7-9.7,0-14.3
	c0.8-2.2,2.1-4.3,3.8-6c1.8-1.8,3.9-3.2,6.2-4.2c5.6-2.1,11.7-2.1,17.2,0c2.4,0.9,4.5,2.4,6.3,4.2c1.7,1.7,3,3.8,3.8,6
	c1.7,4.6,1.7,9.7,0,14.3c-0.8,2.2-2.1,4.3-3.8,6c-1.8,1.8-3.9,3.2-6.3,4.2C343.7,105.8,340.8,106.3,337.8,106.2z M331.4,87.3
	c-0.1,2.1,0.5,4.1,1.8,5.8c2.3,2.6,6.2,2.8,8.8,0.5c0.2-0.2,0.3-0.3,0.5-0.5c1.3-1.6,1.9-3.7,1.8-5.8c0.1-2.1-0.5-4.1-1.8-5.8
	c-2.3-2.6-6.2-2.8-8.8-0.5c-0.2,0.2-0.3,0.3-0.5,0.5C331.9,83.2,331.2,85.2,331.4,87.3z"/>
<path class="st0" d="M370.8,69.1l5.2,9l0.7,1.5l0.7-1.5l5.2-9H396l-12.2,18.2l12.5,18.3H383l-5.6-9l-0.6-1.4l-0.6,1.4l-5.6,9h-13.4
	l12.5-18.3l-12.2-18.2H370.8z"/>
<path class="st0" d="M4.9,105.5V56.3h22.6c2.3,0,4.6,0.5,6.7,1.5c2,1,3.7,2.3,5.2,3.9c1.5,1.6,2.6,3.5,3.4,5.5
	c0.8,2,1.2,4.1,1.3,6.2c0,2.8-0.6,5.5-1.9,8c-1.2,2.4-3,4.5-5.2,6.1l10.4,18.1H32.1l-8.7-15.1h-5.1v15.1H4.9z M18.4,78.6h8.5
	c1-0.1,1.8-0.6,2.3-1.4c0.8-1.1,1.2-2.5,1.1-3.9c0.1-1.4-0.3-2.8-1.3-3.9c-0.6-0.8-1.5-1.3-2.5-1.3h-8.2V78.6z"/>
<path class="st0" d="M67.4,106.2c-2.9,0-5.8-0.5-8.5-1.5c-2.4-0.9-4.5-2.3-6.3-4.1c-1.7-1.7-3-3.7-3.8-5.9c-0.9-2.2-1.3-4.6-1.3-7
	c0-2.6,0.4-5.1,1.3-7.5c0.8-2.3,2.1-4.4,3.8-6.2c1.8-1.8,3.9-3.2,6.2-4.2c2.7-1.1,5.7-1.6,8.6-1.6c2.9-0.1,5.8,0.5,8.6,1.5
	c2.4,0.9,4.5,2.4,6.3,4.2c1.7,1.7,3,3.8,3.8,6c0.9,2.3,1.3,4.7,1.3,7.2c0,0.7,0,1.4-0.1,2.1s-0.2,1.3-0.2,1.9H61.5
	c0,1.7,0.8,3.2,2.2,4.2c1.2,0.8,2.7,1.3,4.2,1.3c1.4,0,2.8-0.3,4.1-1c1.2-0.5,2.1-1.5,2.5-2.7l11.2,3.2c-1.5,3-3.9,5.5-6.8,7.2
	C75.3,105.4,71.4,106.3,67.4,106.2z M73.3,83.4c-0.1-1.6-0.8-3-1.9-4.2c-2.3-2-5.8-2-8.2,0c-1.1,1.1-1.8,2.6-1.9,4.2H73.3z"/>
<path class="st0" d="M89.7,87.3c0-2.4,0.4-4.9,1.3-7.2c0.9-2.2,2.2-4.3,3.8-6c1.8-1.8,3.9-3.2,6.3-4.2c2.7-1.1,5.7-1.6,8.6-1.6
	c3.9-0.1,7.8,0.8,11.1,2.8c2.9,1.7,5.2,4.2,6.7,7.2l-12.8,3.9c-1.1-1.7-3-2.7-5.1-2.7c-1.7,0-3.4,0.7-4.6,2c-1.3,1.6-2,3.7-1.9,5.8
	c-0.1,2.1,0.5,4.2,1.9,5.8c1.2,1.3,2.8,2,4.6,2c2,0,4-1,5.1-2.7l12.8,3.9c-1.5,3-3.8,5.4-6.7,7.2c-3.4,1.9-7.2,2.9-11.1,2.8
	c-2.9,0.1-5.9-0.5-8.6-1.6c-2.4-0.9-4.5-2.4-6.3-4.2c-1.7-1.7-3-3.8-3.8-6C90.1,92.2,89.7,89.7,89.7,87.3z"/>
<path class="st0" d="M149.4,106.2c-2.9,0-5.8-0.5-8.5-1.5c-2.4-0.9-4.5-2.3-6.3-4.1c-1.7-1.7-3-3.7-3.9-5.9c-0.9-2.2-1.3-4.6-1.3-7
	c0-2.6,0.4-5.1,1.3-7.5c0.8-2.3,2.1-4.4,3.8-6.2c1.8-1.8,3.9-3.2,6.3-4.2c5.6-2.1,11.7-2.1,17.2,0c2.4,0.9,4.5,2.4,6.3,4.2
	c1.7,1.7,3,3.8,3.8,6c0.9,2.3,1.3,4.7,1.3,7.2c0,0.7,0,1.4-0.1,2.1s-0.1,1.3-0.2,1.9h-25.6c0,1.7,0.8,3.2,2.1,4.2
	c1.2,0.8,2.7,1.3,4.2,1.3c1.4,0,2.8-0.4,4-1c1.2-0.5,2.1-1.5,2.5-2.7l11.2,3.2c-1.5,3-3.9,5.5-6.8,7.2
	C157.2,105.4,153.3,106.3,149.4,106.2z M155.2,83.4c-0.1-1.6-0.8-3-1.9-4.2c-2.3-2-5.8-2-8.2,0c-1.1,1.1-1.8,2.6-1.9,4.2H155.2z"/>
<path class="st0" d="M198.8,103.5c-1.9,0.8-3.9,1.5-5.9,2c-2,0.5-4.1,0.8-6.2,0.8c-1.4,0-2.9-0.2-4.2-0.6c-1.3-0.3-2.5-1-3.5-1.8
	c-1-0.9-1.8-2-2.4-3.3c-0.6-1.6-0.9-3.3-0.9-5V79h-4.5v-9.9h4.5V57.6h13.2v11.4h7.1V79h-7.1v12c-0.1,0.9,0.2,1.8,0.8,2.5
	c0.6,0.5,1.3,0.8,2.1,0.7c0.8,0,1.5-0.1,2.3-0.3c0.9-0.2,1.7-0.5,2.5-0.9L198.8,103.5z"/>
<path class="st0" d="M213.3,106.2c-1.7,0-3.4-0.3-5.1-0.9c-1.5-0.6-2.9-1.4-4.1-2.5c-2.3-2.1-3.7-5.2-3.6-8.4c0-1.8,0.4-3.5,1.2-5.1
	c0.8-1.6,1.9-2.9,3.3-4c1.5-1.2,3.2-2,5-2.6c2.1-0.6,4.2-0.9,6.4-0.9c2.5-0.1,5,0.4,7.4,1.4v-1.1c0.1-1.4-0.4-2.8-1.5-3.8
	c-1-0.8-2.6-1.3-4.8-1.3c-2,0-3.9,0.3-5.8,1c-2,0.8-3.8,1.8-5.5,3l-3.9-8.2c4.9-3.1,10.6-4.7,16.4-4.7c5.8,0,10.3,1.3,13.4,3.9
	s4.7,6.5,4.7,11.7V91c-0.1,0.9,0.1,1.8,0.6,2.6c0.5,0.6,1.2,0.9,1.9,0.9v11.1c-1.1,0.2-2.1,0.4-3,0.5c-0.8,0.1-1.7,0.2-2.5,0.2
	c-1.9,0.1-3.8-0.3-5.4-1.3c-1.3-0.9-2.1-2.3-2.4-3.8l-0.3-1.3c-1.5,2-3.4,3.6-5.6,4.8C218,105.7,215.7,106.3,213.3,106.2z
	 M217.3,96.8c0.8,0,1.6-0.1,2.4-0.4c0.8-0.2,1.5-0.6,2.2-1c0.5-0.3,0.9-0.7,1.3-1.2c0.3-0.4,0.5-0.9,0.5-1.4v-2.7
	c-0.8-0.3-1.7-0.5-2.6-0.7c-0.8-0.2-1.7-0.3-2.5-0.3c-1.4-0.1-2.8,0.4-4,1.2c-1,0.7-1.6,1.8-1.6,3c0,1,0.4,1.9,1.2,2.5
	C215.1,96.5,216.2,96.8,217.3,96.8z"/>
<path class="st0" d="M415,165H253V3h162V165z M263,155h142V13H263V155z"/>
</svg>
